<?xml version="1.0" encoding="utf-8"?>
<!-- Generator: Adobe Illustrator 23.0.4, SVG Export Plug-In . SVG Version: 6.00 Build 0)  -->
<svg version="1.1" id="Layer_1" xmlns="http://www.w3.org/2000/svg" xmlns:xlink="http://www.w3.org/1999/xlink" x="0px" y="0px"
	 viewBox="0 0 22 22" enable-background="new 0 0 22 22" xml:space="preserve">
<path id="path1938_17_" fill="#FFFFFF" d="M9.8,17.6c-0.4,0-0.7-0.1-1.1-0.2c-1.6-0.5-2.7-1.9-3-3.6c0-0.1,0-0.2-0.1-0.3
	c0-0.2,0-0.7,0-0.9C5.7,12,5.8,11.4,6,11c0.5-0.9,1.2-1.6,2-2l0.2-0.1V9c0,0.1,0.1,1.2,0.1,1.2s0,0-0.1,0.1
	c-0.2,0.2-0.4,0.3-0.6,0.5c-0.4,0.5-0.7,1.1-0.8,1.7c0,0.2,0,0.2,0,0.4c0,0.3,0,0.4,0.1,0.6c0.2,0.7,0.4,1.2,0.9,1.7
	c0.2,0.2,0.3,0.2,0.5,0.4C9,16.1,10,16.3,10.9,16c0.2-0.1,0.4-0.2,0.7-0.2c0.7-0.3,1.2-1,1.5-1.7c0.1-0.2,0.2-0.5,0.2-0.7
	c0-0.1,0-0.1,0-0.1s0.2,0.3,0.4,0.8L14,15l-0.1,0.1c-0.5,1-1.4,1.7-2.5,2.2c-0.3,0.1-0.6,0.2-1,0.2C10.4,17.6,9.9,17.6,9.8,17.6z
	 M15.1,16.1c0,0-0.4-1-0.9-2.2l-0.8-2.2h-2.2c-1.2,0-2.2,0-2.2,0s-0.1-1.4-0.2-3.1l-0.4-3V5.5c0-0.1,0-0.3-0.1-0.4
	c0-0.6,0.4-1.2,1-1.2c0.2,0,0.3,0,0.4,0C10,4,10.4,4.2,10.5,4.6c0.1,0.2,0.2,0.3,0.2,0.6c0,0.4-0.2,0.7-0.5,1
	c-0.1,0.1-0.3,0.2-0.5,0.2H9.6v0.1c0,0.1,0.2,2.4,0.2,2.4l0,0h1.6H13v0.6v0.6h-1.5H9.9V10c0,0,0,0.2,0,0.4v0.3h0.4
	c0.9,0,3.6,0,3.7,0c0,0,0.4,0.9,0.9,2.1s0.9,2.1,0.9,2.1s0.3-0.1,0.7-0.2c0.3-0.2,0.7-0.2,0.7-0.2l0.3,0.9
	C17.5,15.2,15.1,16.1,15.1,16.1L15.1,16.1z"/>
</svg>
